<?xml version="1.0" encoding="UTF-8" standalone="no"?>
<!DOCTYPE svg PUBLIC "-//W3C//DTD SVG 1.1//EN" "http://www.w3.org/Graphics/SVG/1.1/DTD/svg11.dtd">
<svg width="100%" height="100%" viewBox="0 0 599 211" version="1.1" xmlns="http://www.w3.org/2000/svg" xmlns:xlink="http://www.w3.org/1999/xlink" xml:space="preserve" xmlns:serif="http://www.serif.com/" style="fill-rule:evenodd;clip-rule:evenodd;stroke-linecap:round;stroke-linejoin:round;stroke-miterlimit:1.5;">
    <g id="Artboard1" transform="matrix(0.658834,0,0,0.440517,-905.32,0)">
        <rect x="1374.12" y="0" width="907.898" height="476.968" style="fill:none;"/>
        <clipPath id="_clip1">
            <rect x="1374.12" y="0" width="907.898" height="476.968"/>
        </clipPath>
        <g clip-path="url(#_clip1)">
            <g transform="matrix(1.27968,0,0,1.82971,920.402,-280.588)">
                <path d="M647.833,223.333C647.833,189.299 621.417,161.667 588.878,161.667L423.455,161.667C390.917,161.667 364.5,189.299 364.5,223.333L364.5,346.667C364.5,380.701 390.917,408.333 423.455,408.333L588.878,408.333C621.417,408.333 647.833,380.701 647.833,346.667L647.833,223.333Z" style="fill:rgb(50,147,41);"/>
                <clipPath id="_clip2">
                    <path d="M647.833,223.333C647.833,189.299 621.417,161.667 588.878,161.667L423.455,161.667C390.917,161.667 364.5,189.299 364.5,223.333L364.5,346.667C364.5,380.701 390.917,408.333 423.455,408.333L588.878,408.333C621.417,408.333 647.833,380.701 647.833,346.667L647.833,223.333Z"/>
                </clipPath>
                <g clip-path="url(#_clip2)">
                    <g transform="matrix(1.56258,0,0,3.11328,-230.477,-725.624)">
                        <path d="M647.833,342.708C647.833,337.074 639.121,332.5 628.389,332.5L363.945,332.5C353.213,332.5 344.5,337.074 344.5,342.708L344.5,363.125C344.5,368.759 353.213,373.333 363.945,373.333L628.389,373.333C639.121,373.333 647.833,368.759 647.833,363.125L647.833,342.708Z" style="fill:white;stroke:black;stroke-width:3.17px;"/>
                    </g>
                </g>
                <path d="M647.833,223.333C647.833,189.299 621.417,161.667 588.878,161.667L423.455,161.667C390.917,161.667 364.5,189.299 364.5,223.333L364.5,346.667C364.5,380.701 390.917,408.333 423.455,408.333L588.878,408.333C621.417,408.333 647.833,380.701 647.833,346.667L647.833,223.333Z" style="fill:none;stroke:black;stroke-width:3.74px;"/>
            </g>
            <g transform="matrix(1.03445,0,0,1.4373,1398.02,-167.884)">
                <g transform="matrix(0.87,0,0,0.91,44.135,31.95)">
                    <path d="M902.062,355L879.062,355L879.062,265.671L849.607,265.671L849.607,246.529L931.517,246.529L931.517,265.671L902.062,265.671L902.062,355Z" style="fill:url(#_Linear3);fill-rule:nonzero;stroke:black;stroke-width:7.14px;stroke-linecap:butt;stroke-miterlimit:1.41421;"/>
                </g>
                <g transform="matrix(0.87,0,0,0.91,44.135,31.95)">
                    <path d="M843.058,355L780.587,355L780.587,246.529L843.058,246.529L843.058,265.374L803.587,265.374L803.587,289.19L840.313,289.19L840.313,308.035L803.587,308.035L803.587,336.006L843.058,336.006L843.058,355Z" style="fill:url(#_Linear4);fill-rule:nonzero;stroke:black;stroke-width:7.14px;stroke-linecap:butt;stroke-miterlimit:1.41421;"/>
                </g>
                <g transform="matrix(0.87,0,0,0.91,44.135,31.95)">
                    <path d="M772.406,355L746.29,355L717.873,309.297L708.154,316.271L708.154,355L685.154,355L685.154,246.529L708.154,246.529L708.154,296.165L717.206,283.403L746.586,246.529L772.109,246.529L734.27,294.532L772.406,355Z" style="fill:url(#_Linear5);fill-rule:nonzero;stroke:black;stroke-width:7.14px;stroke-linecap:butt;stroke-miterlimit:1.41421;"/>
                </g>
                <g transform="matrix(0.87,0,0,0.91,44.135,31.95)">
                    <path d="M613.315,294.681L620.734,294.681C628.005,294.681 633.372,293.469 636.834,291.045C640.296,288.621 642.027,284.813 642.027,279.619C642.027,274.475 640.259,270.815 636.723,268.639C633.186,266.462 627.708,265.374 620.289,265.374L613.315,265.374L613.315,294.681ZM613.315,313.377L613.315,355L590.315,355L590.315,246.529L621.921,246.529C636.661,246.529 647.567,249.212 654.64,254.579C661.713,259.946 665.25,268.095 665.25,279.026C665.25,285.406 663.494,291.082 659.982,296.053C656.47,301.024 651.499,304.919 645.069,307.739C661.392,332.124 672.026,347.877 676.973,355L651.45,355L625.556,313.377L613.315,313.377Z" style="fill:url(#_Linear6);fill-rule:nonzero;stroke:black;stroke-width:7.14px;stroke-linecap:butt;stroke-miterlimit:1.41421;"/>
                </g>
                <g transform="matrix(0.87,0,0,0.91,44.135,31.95)">
                    <path d="M557.352,355L549.488,329.181L509.943,329.181L502.078,355L477.298,355L515.581,246.084L543.701,246.084L582.133,355L557.352,355ZM543.998,309.89C536.727,286.495 532.634,273.263 531.719,270.197C530.803,267.13 530.148,264.706 529.752,262.926C528.12,269.257 523.446,284.912 515.73,309.89L543.998,309.89Z" style="fill:url(#_Linear7);fill-rule:nonzero;stroke:black;stroke-width:7.14px;stroke-linecap:butt;stroke-miterlimit:1.41421;"/>
                </g>
                <g transform="matrix(0.87,0,0,0.91,44.135,31.95)">
                    <path d="M399.077,355L372.961,269.9L372.294,269.9C373.233,287.212 373.703,298.761 373.703,304.548L373.703,355L353.152,355L353.152,246.529L384.461,246.529L410.132,329.477L410.577,329.477L437.806,246.529L469.116,246.529L469.116,355L447.674,355L447.674,303.658C447.674,301.234 447.711,298.44 447.785,295.274C447.86,292.109 448.194,283.7 448.787,270.048L448.119,270.048L420.148,355L399.077,355Z" style="fill:url(#_Linear8);fill-rule:nonzero;stroke:black;stroke-width:7.14px;stroke-linecap:butt;stroke-miterlimit:1.41421;"/>
                </g>
            </g>
            <g transform="matrix(3.32292,0,0,4.38185,558.779,-1945.93)">
                <path d="M324.667,531.715L296.357,462.741L307.065,462.741L321.286,498.112C322.124,500.168 322.818,502.065 323.367,503.803C323.916,505.542 324.349,507.197 324.667,508.769C325.043,507.106 325.52,505.383 326.098,503.599C326.676,501.815 327.355,499.986 328.136,498.112L342.313,462.741L352.978,462.741L324.667,531.715ZM269.475,529.13L259.705,529.13L259.705,462.039L274.25,462.039C278.515,462.039 281.823,462.329 284.174,462.91C286.525,463.49 288.533,464.453 290.198,465.797C292.184,467.416 293.718,469.509 294.799,472.075C295.879,474.642 296.42,477.452 296.42,480.507C296.42,485.885 295.178,490.093 292.696,493.133C290.213,496.173 286.547,497.998 281.699,498.609L303.78,529.13L291.995,529.13L270.658,499.113L269.475,499.113L269.475,529.13ZM272.016,471.388L270.132,471.388L270.132,490.635L272.016,490.635C277.536,490.635 281.202,489.963 283.013,488.619C284.824,487.275 285.729,484.892 285.729,481.47C285.729,477.773 284.758,475.169 282.816,473.656C280.873,472.144 277.274,471.388 272.016,471.388Z" style="fill:white;fill-rule:nonzero;"/>
                <clipPath id="_clip9">
                    <path d="M324.667,531.715L296.357,462.741L307.065,462.741L321.286,498.112C322.124,500.168 322.818,502.065 323.367,503.803C323.916,505.542 324.349,507.197 324.667,508.769C325.043,507.106 325.52,505.383 326.098,503.599C326.676,501.815 327.355,499.986 328.136,498.112L342.313,462.741L352.978,462.741L324.667,531.715ZM269.475,529.13L259.705,529.13L259.705,462.039L274.25,462.039C278.515,462.039 281.823,462.329 284.174,462.91C286.525,463.49 288.533,464.453 290.198,465.797C292.184,467.416 293.718,469.509 294.799,472.075C295.879,474.642 296.42,477.452 296.42,480.507C296.42,485.885 295.178,490.093 292.696,493.133C290.213,496.173 286.547,497.998 281.699,498.609L303.78,529.13L291.995,529.13L270.658,499.113L269.475,499.113L269.475,529.13ZM272.016,471.388L270.132,471.388L270.132,490.635L272.016,490.635C277.536,490.635 281.202,489.963 283.013,488.619C284.824,487.275 285.729,484.892 285.729,481.47C285.729,477.773 284.758,475.169 282.816,473.656C280.873,472.144 277.274,471.388 272.016,471.388Z" clip-rule="nonzero"/>
                </clipPath>
                <g clip-path="url(#_clip9)">
                    <g transform="matrix(1,6.93889e-18,0,1,-16.0705,0)">
                        <rect x="259.705" y="509.59" width="125.414" height="19.666" style="fill:rgb(50,147,41);stroke:black;stroke-width:3.03px;"/>
                    </g>
                    <g transform="matrix(0.494813,0.003627,-0.0018988,0.310405,54.5097,386.524)">
                        <rect x="318.667" y="310.833" width="377.5" height="77.5" style="fill:white;stroke:black;stroke-width:7.14px;"/>
                    </g>
                    <g transform="matrix(0.494824,0,0,0.644993,58.6791,304.104)">
                        <rect x="333.667" y="175.833" width="418.333" height="103.333" style="fill:white;stroke:black;stroke-width:3.58px;"/>
                    </g>
                </g>
                <path d="M324.667,531.715L296.357,462.741L307.065,462.741L321.286,498.112C322.124,500.168 322.818,502.065 323.367,503.803C323.916,505.542 324.349,507.197 324.667,508.769C325.043,507.106 325.52,505.383 326.098,503.599C326.676,501.815 327.355,499.986 328.136,498.112L342.313,462.741L352.978,462.741L324.667,531.715ZM269.475,529.13L259.705,529.13L259.705,462.039L274.25,462.039C278.515,462.039 281.823,462.329 284.174,462.91C286.525,463.49 288.533,464.453 290.198,465.797C292.184,467.416 293.718,469.509 294.799,472.075C295.879,474.642 296.42,477.452 296.42,480.507C296.42,485.885 295.178,490.093 292.696,493.133C290.213,496.173 286.547,497.998 281.699,498.609L303.78,529.13L291.995,529.13L270.658,499.113L269.475,499.113L269.475,529.13ZM272.016,471.388L270.132,471.388L270.132,490.635L272.016,490.635C277.536,490.635 281.202,489.963 283.013,488.619C284.824,487.275 285.729,484.892 285.729,481.47C285.729,477.773 284.758,475.169 282.816,473.656C280.873,472.144 277.274,471.388 272.016,471.388Z" style="fill:none;stroke:black;stroke-width:2.04px;stroke-linecap:butt;stroke-miterlimit:1.41421;"/>
            </g>
        </g>
    </g>
    <defs>
        <linearGradient id="_Linear3" x1="0" y1="0" x2="1" y2="0" gradientUnits="userSpaceOnUse" gradientTransform="matrix(-440.38,-104.072,101.13,-453.192,1091.68,616.019)"><stop offset="0" style="stop-color:black;stop-opacity:1"/><stop offset="1" style="stop-color:rgb(50,147,41);stop-opacity:1"/></linearGradient>
        <linearGradient id="_Linear4" x1="0" y1="0" x2="1" y2="0" gradientUnits="userSpaceOnUse" gradientTransform="matrix(-440.38,-104.072,101.13,-453.192,1091.68,616.019)"><stop offset="0" style="stop-color:black;stop-opacity:1"/><stop offset="1" style="stop-color:rgb(50,147,41);stop-opacity:1"/></linearGradient>
        <linearGradient id="_Linear5" x1="0" y1="0" x2="1" y2="0" gradientUnits="userSpaceOnUse" gradientTransform="matrix(-440.38,-104.072,101.13,-453.192,1091.68,616.019)"><stop offset="0" style="stop-color:black;stop-opacity:1"/><stop offset="1" style="stop-color:rgb(50,147,41);stop-opacity:1"/></linearGradient>
        <linearGradient id="_Linear6" x1="0" y1="0" x2="1" y2="0" gradientUnits="userSpaceOnUse" gradientTransform="matrix(-440.38,-104.072,101.13,-453.192,1091.68,616.019)"><stop offset="0" style="stop-color:black;stop-opacity:1"/><stop offset="1" style="stop-color:rgb(50,147,41);stop-opacity:1"/></linearGradient>
        <linearGradient id="_Linear7" x1="0" y1="0" x2="1" y2="0" gradientUnits="userSpaceOnUse" gradientTransform="matrix(-440.38,-104.072,101.13,-453.192,1091.68,616.019)"><stop offset="0" style="stop-color:black;stop-opacity:1"/><stop offset="1" style="stop-color:rgb(50,147,41);stop-opacity:1"/></linearGradient>
        <linearGradient id="_Linear8" x1="0" y1="0" x2="1" y2="0" gradientUnits="userSpaceOnUse" gradientTransform="matrix(-440.38,-104.072,101.13,-453.192,1091.68,616.019)"><stop offset="0" style="stop-color:black;stop-opacity:1"/><stop offset="1" style="stop-color:rgb(50,147,41);stop-opacity:1"/></linearGradient>
    </defs>
</svg>
